<?xml version="1.0" standalone="no"?>
<!DOCTYPE svg PUBLIC "-//W3C//DTD SVG 20010904//EN"
 "http://www.w3.org/TR/2001/REC-SVG-20010904/DTD/svg10.dtd">
<svg version="1.0" xmlns="http://www.w3.org/2000/svg"
 width="404.000000pt" height="404.000000pt" viewBox="0 0 404.000000 404.000000"
 preserveAspectRatio="xMidYMid meet">
<metadata>
Created by potrace 1.11, written by Peter Selinger 2001-2013
</metadata>
<g transform="translate(0.000000,404.000000) scale(0.100000,-0.100000)"
fill="#000000" stroke="none">
<path d="M2287 3848 c-25 -7 -37 -15 -33 -23 9 -25 -22 -38 -84 -33 -47 3 -60
1 -62 -11 -3 -12 -5 -12 -19 2 -19 18 -46 13 -127 -23 -98 -46 -120 -59 -155
-92 -16 -16 -35 -28 -43 -28 -20 0 -94 -69 -106 -100 -6 -15 -12 -20 -15 -12
-6 15 -23 16 -23 0 0 -6 -11 -26 -25 -44 -14 -18 -25 -40 -25 -48 0 -8 -9 -20
-21 -26 -26 -14 -67 -104 -87 -190 -22 -93 -19 -196 8 -347 l24 -132 28 1 c30
1 78 -35 78 -59 0 -10 -6 -12 -22 -7 -13 4 -34 8 -48 8 -24 1 -25 -1 -27 -69
l-2 -70 15 45 c8 24 21 51 29 59 13 13 17 12 38 -11 13 -14 30 -27 38 -30 11
-4 10 -13 -9 -46 -13 -23 -20 -42 -16 -42 3 0 1 -6 -5 -14 -7 -8 -8 -16 -4
-19 11 -6 53 10 53 21 0 14 43 7 51 -9 4 -8 13 -29 19 -46 8 -21 19 -33 30
-33 10 0 21 -6 23 -12 10 -25 7 21 -3 47 -7 17 -7 24 0 20 6 -3 10 4 10 17 0
13 3 120 6 238 4 163 10 222 21 244 17 32 13 114 -5 125 -13 8 -42 89 -42 117
0 12 6 27 14 33 8 7 18 25 21 41 4 16 15 32 26 35 10 4 22 18 25 33 9 36 56
89 118 133 48 33 60 37 161 47 61 5 184 10 275 11 91 0 190 3 221 6 37 4 59 3
63 -4 4 -6 17 -11 28 -11 39 0 155 -79 192 -130 62 -86 76 -123 86 -233 6 -56
17 -131 25 -167 16 -72 38 -199 64 -366 19 -118 24 -134 46 -134 19 0 26 30
26 111 0 63 2 69 18 64 15 -4 19 5 30 75 8 57 9 90 2 118 -6 21 -13 99 -15
173 -3 118 -7 141 -30 193 -14 32 -26 65 -26 73 0 18 -83 180 -112 218 -61 79
-186 178 -244 194 -22 6 -49 20 -59 31 -21 24 -47 27 -39 5 13 -32 -60 -6
-109 39 -47 44 -71 56 -109 56 -31 0 -38 -4 -38 -20 0 -13 7 -20 20 -20 11 0
20 -4 20 -10 0 -15 -26 -12 -40 4 -6 8 -18 12 -26 9 -10 -4 -17 2 -21 16 -6
23 -18 24 -76 9z m173 -8 c0 -5 -4 -10 -10 -10 -5 0 -10 5 -10 10 0 6 5 10 10
10 6 0 10 -4 10 -10z m-135 -41 c-22 -4 -42 -5 -44 -3 -8 8 44 21 64 15 15 -4
10 -7 -20 -12z m-305 -103 c0 -3 -4 -8 -10 -11 -5 -3 -10 -1 -10 4 0 6 5 11
10 11 6 0 10 -2 10 -4z"/>
<path d="M2678 3034 c-16 -8 -28 -19 -28 -25 0 -9 -55 -86 -71 -99 -3 -3 -8
-20 -11 -38 -4 -28 -2 -33 13 -29 10 3 20 0 22 -6 2 -6 19 -16 38 -23 27 -10
29 -13 12 -13 -13 -1 -23 -5 -23 -11 0 -18 42 -31 113 -35 l72 -5 -50 16 c-43
14 -47 18 -32 29 10 7 57 16 106 19 79 7 88 9 84 25 -6 24 -53 47 -63 31 -10
-16 -120 -2 -120 15 0 7 -7 15 -15 19 -8 3 -15 14 -15 25 0 20 53 51 88 51 26
0 38 18 18 26 -9 3 -16 11 -16 18 0 6 -10 11 -22 11 -13 1 -34 4 -48 7 -15 4
-36 1 -52 -8z"/>
<path d="M2140 3008 c-88 -38 -148 -69 -160 -83 -11 -13 -8 -15 19 -15 18 0
42 5 54 12 32 18 118 27 150 16 33 -12 35 -40 5 -70 -18 -18 -35 -23 -83 -24
-33 -1 -65 -2 -72 -3 -17 -2 -74 -52 -68 -60 6 -11 229 -3 297 10 41 8 58 16
61 30 3 13 11 17 21 13 13 -5 16 1 16 28 0 33 -26 68 -51 68 -7 0 -9 11 -6 30
6 27 3 31 -29 45 -42 17 -117 19 -154 3z"/>
<path d="M2220 2740 c-9 -6 -10 -10 -3 -10 6 0 15 5 18 10 8 12 4 12 -15 0z"/>
<path d="M2600 2504 c-51 -27 -77 -30 -104 -9 -21 16 -106 19 -139 6 -18 -6
-18 -7 0 -23 10 -8 25 -18 33 -21 10 -3 6 -8 -15 -16 -22 -9 -26 -14 -16 -21
8 -4 19 -6 25 -4 6 2 29 -5 51 -16 70 -36 195 -23 195 20 0 12 4 19 9 16 5 -3
18 12 30 34 20 38 20 41 4 47 -10 3 -20 7 -23 9 -3 1 -25 -9 -50 -22z"/>
<path d="M3092 2475 c0 -16 2 -22 5 -12 2 9 2 23 0 30 -3 6 -5 -1 -5 -18z"/>
<path d="M2820 2467 c0 -2 7 -18 16 -36 9 -18 14 -41 11 -51 -3 -11 -1 -20 4
-22 5 -2 6 -13 3 -25 -6 -22 -33 -31 -48 -16 -3 4 -16 8 -29 10 -50 7 -375 2
-460 -7 -123 -13 -150 -12 -172 3 -16 13 -17 17 -4 45 8 18 19 32 26 32 7 0
17 9 23 19 13 25 13 31 -1 31 -5 0 -7 -4 -4 -10 3 -5 -1 -10 -9 -10 -21 0 -85
-89 -86 -118 0 -26 55 -82 81 -82 9 0 22 -6 28 -14 13 -15 119 -51 128 -43 10
10 -8 26 -22 20 -9 -3 -15 1 -15 11 0 23 4 31 13 28 5 -1 11 7 14 19 4 16 11
19 27 14 25 -9 95 -7 110 2 17 11 194 14 200 4 3 -5 14 -7 24 -5 9 2 26 -3 36
-11 17 -13 18 -18 6 -40 -26 -48 4 -39 101 30 29 20 44 26 46 18 6 -18 33 -16
33 2 0 8 4 15 9 15 34 0 0 109 -48 159 -27 28 -41 37 -41 28z m70 -143 c0 -8
-5 -12 -10 -9 -6 4 -8 11 -5 16 9 14 15 11 15 -7z"/>
<path d="M1732 2210 c14 -22 24 -19 15 5 -4 8 -11 15 -17 15 -6 0 -6 -7 2 -20z"/>
<path d="M2656 2203 c-11 -11 -6 -23 9 -23 8 0 15 4 15 9 0 13 -16 22 -24 14z"/>
<path d="M2356 2187 c-14 -10 -16 -16 -7 -22 15 -9 35 8 30 24 -3 8 -10 7 -23
-2z"/>
<path d="M1795 2158 c3 -53 17 -108 27 -108 5 0 6 -9 3 -20 -4 -13 1 -34 13
-54 23 -39 37 -91 33 -124 -1 -13 2 -28 7 -35 5 -7 8 -23 7 -36 -1 -15 4 -25
14 -28 9 -2 21 -14 26 -26 6 -12 24 -31 42 -42 18 -11 32 -24 33 -28 0 -5 -4
-5 -10 -2 -9 6 -11 0 -9 -22 0 -5 6 -7 14 -5 7 1 16 -2 20 -8 3 -5 17 -10 30
-10 19 0 24 -5 22 -21 -1 -14 4 -23 15 -24 10 -2 25 -10 34 -19 11 -12 35 -16
93 -16 58 0 82 -4 91 -15 13 -16 50 -21 50 -6 0 5 11 8 25 7 14 0 25 -7 25
-13 0 -15 71 -18 86 -4 5 5 30 13 55 18 52 11 79 -1 79 -35 0 -11 4 -24 10
-27 12 -8 59 26 60 43 0 10 5 10 20 2 17 -9 22 -5 39 28 11 21 27 44 35 51 9
8 16 24 16 38 0 15 12 34 30 50 17 13 30 32 30 41 1 10 16 42 35 72 19 30 49
82 66 115 17 33 37 67 44 75 7 8 17 35 23 60 15 63 28 112 37 133 4 9 3 17 -3
17 -6 0 -13 -13 -17 -30 -4 -16 -17 -50 -30 -76 -20 -40 -24 -43 -27 -23 l-3
24 -20 -22 c-12 -15 -21 -19 -26 -11 -4 6 -9 3 -13 -10 -4 -12 -16 -24 -27
-27 -10 -4 -19 -12 -19 -19 0 -12 -44 -40 -65 -41 -11 0 -31 -28 -41 -58 -5
-13 -14 -17 -30 -14 -13 2 -24 0 -24 -4 0 -25 -132 -56 -220 -51 -210 11 -198
8 -243 51 -27 27 -45 37 -51 31 -15 -15 -39 -12 -33 4 6 16 -19 30 -28 16 -4
-6 -17 -10 -30 -10 -18 0 -25 -6 -28 -27 -4 -27 -4 -27 -12 -5 -5 14 -15 22
-30 22 -16 0 -30 11 -45 35 -12 20 -30 35 -40 35 -11 0 -27 11 -37 25 -10 14
-26 35 -37 48 -10 12 -22 32 -27 45 -5 12 -16 22 -25 22 -13 0 -15 7 -10 34 6
30 -4 46 -28 46 -2 0 -2 -15 -1 -32z m1155 -148 c0 -5 -2 -10 -4 -10 -3 0 -8
5 -11 10 -3 6 -1 10 4 10 6 0 11 -4 11 -10z m-810 -140 c0 -5 -2 -10 -4 -10
-3 0 -8 5 -11 10 -3 6 -1 10 4 10 6 0 11 -4 11 -10z"/>
<path d="M2571 2044 c-9 -11 -16 -13 -24 -5 -16 16 -67 14 -67 -3 0 -18 63
-25 106 -12 19 6 34 17 34 23 0 18 -32 15 -49 -3z"/>
<path d="M3956 1929 c-14 -11 -26 -17 -26 -14 0 4 -14 -5 -31 -19 -35 -30 -45
-33 -154 -41 -44 -3 -116 -9 -160 -14 -46 -4 -92 -4 -108 2 -32 11 -137 0
-137 -14 0 -5 -13 -9 -29 -9 -24 0 -31 -6 -40 -31 -6 -18 -11 -43 -11 -56 0
-40 -48 -123 -70 -123 -11 0 -20 -4 -20 -8 0 -4 -14 -13 -31 -19 -17 -7 -29
-16 -26 -20 3 -5 -1 -19 -8 -32 -8 -15 -10 -35 -5 -51 5 -17 3 -33 -6 -45 -12
-16 -17 -17 -39 -5 -13 7 -33 21 -43 30 -27 25 -104 80 -112 80 -19 0 36 -173
61 -196 12 -11 34 -44 49 -74 35 -67 78 -114 130 -140 40 -21 70 -61 90 -122
6 -21 17 -41 24 -45 27 -17 86 -112 95 -154 16 -69 40 -120 82 -170 22 -26 39
-51 39 -55 0 -5 6 -20 13 -34 8 -14 19 -47 26 -74 12 -49 56 -142 72 -151 4
-3 19 -27 32 -54 22 -42 33 -82 69 -233 l9 -38 174 0 175 0 0 975 0 975 -29 0
c-15 0 -40 -9 -55 -21z"/>
<path d="M1782 1788 c-7 -7 -12 -18 -12 -25 0 -7 -7 -10 -15 -7 -9 4 -15 0
-15 -10 0 -9 -6 -16 -14 -16 -8 0 -18 -5 -22 -12 -4 -7 -3 -8 4 -4 7 4 12 5
12 1 0 -3 -11 -10 -25 -15 -14 -5 -25 -16 -25 -25 0 -8 -4 -15 -8 -15 -4 0
-28 -18 -52 -41 -43 -39 -108 -79 -129 -79 -5 0 -22 -5 -38 -12 -15 -6 -36
-10 -45 -9 -10 1 -18 -3 -18 -8 0 -6 -7 -11 -16 -11 -8 0 -12 5 -9 10 3 6 1
10 -4 10 -6 0 -11 -4 -11 -10 0 -5 -12 -13 -27 -16 -16 -4 -44 -15 -63 -24
-19 -10 -55 -21 -80 -25 -55 -9 -103 -32 -94 -46 4 -7 -9 -8 -38 -4 -31 5 -61
1 -103 -13 -82 -27 -241 -37 -277 -18 -16 8 -28 11 -28 7 0 -4 -16 -13 -35
-20 -19 -7 -35 -17 -35 -22 0 -5 -9 -9 -19 -9 -11 0 -23 -4 -26 -10 -8 -12
-115 -13 -115 -1 0 5 -10 11 -22 14 -13 3 -42 12 -65 21 -23 9 -67 19 -97 24
-47 8 -56 6 -59 -7 -4 -13 -5 -13 -6 2 -1 22 -3 22 -47 -8 -20 -14 -43 -25
-50 -25 -8 0 -14 -4 -14 -9 0 -5 -9 -13 -20 -16 -20 -6 -20 -15 -20 -656 l0
-649 1006 0 c953 0 1005 1 1000 18 -3 9 -28 116 -56 237 -28 121 -62 267 -76
325 -38 159 -64 277 -79 360 -7 41 -23 111 -35 155 -13 49 -27 150 -35 259
l-14 178 29 90 c17 50 30 97 30 105 0 8 7 27 15 43 17 32 16 37 -3 18z m-297
-268 c-3 -5 -10 -10 -16 -10 -5 0 -9 5 -9 10 0 6 7 10 16 10 8 0 12 -4 9 -10z"/>
<path d="M2373 963 c-78 -44 -99 -61 -70 -60 40 1 67 -5 80 -18 12 -11 16 -12
19 -3 8 24 58 -8 58 -37 0 -17 7 -28 23 -34 48 -19 65 -72 91 -291 2 -19 13
-87 24 -150 11 -63 28 -172 38 -242 l17 -128 174 0 173 0 -6 28 c-17 70 -96
247 -148 332 -30 48 -56 225 -55 365 1 137 7 161 40 157 13 -1 26 -7 27 -12 7
-20 30 -10 25 10 -4 17 -2 19 13 13 17 -6 17 -5 4 8 -29 29 -56 39 -70 26 -10
-10 -12 -9 -7 5 9 25 -34 55 -98 68 -47 10 -63 8 -120 -9 -79 -25 -95 -26 -95
-7 0 14 -21 26 -43 26 -7 0 -49 -21 -94 -47z"/>
</g>
</svg>
