<svg xmlns="http://www.w3.org/2000/svg" width="1920" height="2880"><path d="M1198,1566L1217,1736L1343,1592Z" fill="#4a95c8" stroke="#4a95c8" stroke-width="1.51"/><path d="M1217,1736L1317,1764L1343,1592Z" fill="#448fc5" stroke="#448fc5" stroke-width="1.51"/><path d="M1343,1592L1311,1399L1198,1566Z" fill="#4f97c9" stroke="#4f97c9" stroke-width="1.51"/><path d="M1217,1736L1312,1912L1317,1764Z" fill="#3d8cc3" stroke="#3d8cc3" stroke-width="1.51"/><path d="M1317,1764L1540,1696L1343,1592Z" fill="#3e88c2" stroke="#3e88c2" stroke-width="1.51"/><path d="M952,1788L1145,1947L1217,1736Z" fill="#4a96c9" stroke="#4a96c9" stroke-width="1.51"/><path d="M1311,1399L1118,1398L1198,1566Z" fill="#579fcd" stroke="#579fcd" stroke-width="1.51"/><path d="M1560,1942L1540,1696L1317,1764Z" fill="#337fbc" stroke="#337fbc" stroke-width="1.51"/><path d="M1343,1592L1562,1334L1311,1399Z" fill="#4d91c7" stroke="#4d91c7" stroke-width="1.51"/><path d="M1217,1736L1145,1947L1312,1912Z" fill="#3e8dc4" stroke="#3e8dc4" stroke-width="1.51"/><path d="M952,1788L1217,1736L917,1596Z" fill="#579fce" stroke="#579fce" stroke-width="1.51"/><path d="M917,1596L1217,1736L1198,1566Z" fill="#559dcd" stroke="#559dcd" stroke-width="1.51"/><path d="M1118,1398L917,1596L1198,1566Z" fill="#5ea4d0" stroke="#5ea4d0" stroke-width="1.51"/><path d="M1540,1696L1620,1602L1343,1592Z" fill="#3e83be" stroke="#3e83be" stroke-width="1.51"/><path d="M1118,1398L1008,1313L917,1596Z" fill="#67abd4" stroke="#67abd4" stroke-width="1.51"/><path d="M1151,1133L1008,1313L1118,1398Z" fill="#6eacd4" stroke="#6eacd4" stroke-width="1.51"/><path d="M1312,1912L1560,1942L1317,1764Z" fill="#3381be" stroke="#3381be" stroke-width="1.51"/><path d="M1741,1743L1706,1567L1620,1602Z" fill="#3876b3" stroke="#3876b3" stroke-width="1.51"/><path d="M1545,2112L1560,1942L1312,1912Z" fill="#2a77b8" stroke="#2a77b8" stroke-width="1.51"/><path d="M1620,1602L1562,1334L1343,1592Z" fill="#4688c0" stroke="#4688c0" stroke-width="1.51"/><path d="M1311,1399L1151,1133L1118,1398Z" fill="#63a5d0" stroke="#63a5d0" stroke-width="1.51"/><path d="M952,1788L935,1960L1145,1947Z" fill="#5098ca" stroke="#5098ca" stroke-width="1.51"/><path d="M1145,1947L1165,2097L1312,1912Z" fill="#3a89c1" stroke="#3a89c1" stroke-width="1.51"/><path d="M764,1980L935,1960L952,1788Z" fill="#5e9fce" stroke="#5e9fce" stroke-width="1.51"/><path d="M1620,1602L1706,1567L1562,1334Z" fill="#437fba" stroke="#437fba" stroke-width="1.51"/><path d="M1741,1743L1620,1602L1540,1696Z" fill="#3778b6" stroke="#3778b6" stroke-width="1.51"/><path d="M935,1960L1165,2097L1145,1947Z" fill="#468fc6" stroke="#468fc6" stroke-width="1.51"/><path d="M1560,1942L1741,1743L1540,1696Z" fill="#2f75b4" stroke="#2f75b4" stroke-width="1.51"/><path d="M917,1596L729,1776L952,1788Z" fill="#68a8d2" stroke="#68a8d2" stroke-width="1.51"/><path d="M755,1289L755,1561L917,1596Z" fill="#7ab5d9" stroke="#7ab5d9" stroke-width="1.51"/><path d="M1327,1109L1151,1133L1311,1399Z" fill="#67a4d0" stroke="#67a4d0" stroke-width="1.51"/><path d="M1008,1313L755,1289L917,1596Z" fill="#76b3d8" stroke="#76b3d8" stroke-width="1.51"/><path d="M1562,1334L1327,1109L1311,1399Z" fill="#5c97ca" stroke="#5c97ca" stroke-width="1.51"/><path d="M755,1561L729,1776L917,1596Z" fill="#73afd5" stroke="#73afd5" stroke-width="1.51"/><path d="M1397,2183L1545,2112L1312,1912Z" fill="#2876b8" stroke="#2876b8" stroke-width="1.51"/><path d="M1560,1942L1797,1907L1741,1743Z" fill="#296cad" stroke="#296cad" stroke-width="1.51"/><path d="M1165,2097L1397,2183L1312,1912Z" fill="#327fbd" stroke="#327fbd" stroke-width="1.51"/><path d="M1562,1334L1552,1149L1327,1109Z" fill="#5f95c7" stroke="#5f95c7" stroke-width="1.51"/><path d="M1804,1159L1552,1149L1562,1334Z" fill="#5988be" stroke="#5988be" stroke-width="1.51"/><path d="M1151,1133L927,1164L1008,1313Z" fill="#77b3d7" stroke="#77b3d7" stroke-width="1.51"/><path d="M729,1776L764,1980L952,1788Z" fill="#68a6d1" stroke="#68a6d1" stroke-width="1.51"/><path d="M935,1960L920,2205L1165,2097Z" fill="#4a90c5" stroke="#4a90c5" stroke-width="1.51"/><path d="M1165,2097L1338,2317L1397,2183Z" fill="#2c78b8" stroke="#2c78b8" stroke-width="1.51"/><path d="M1994,1561L1809,1398L1706,1567Z" fill="#3d70a7" stroke="#3d70a7" stroke-width="1.51"/><path d="M1750,2188L1797,1907L1560,1942Z" fill="#2166a9" stroke="#2166a9" stroke-width="1.51"/><path d="M1706,1567L1809,1398L1562,1334Z" fill="#457db7" stroke="#457db7" stroke-width="1.51"/><path d="M1987,1691L1706,1567L1741,1743Z" fill="#346ca6" stroke="#346ca6" stroke-width="1.51"/><path d="M927,1164L755,1289L1008,1313Z" fill="#80b8db" stroke="#80b8db" stroke-width="1.51"/><path d="M755,1561L618,1711L729,1776Z" fill="#7cb3d7" stroke="#7cb3d7" stroke-width="1.51"/><path d="M729,1776L618,1971L764,1980Z" fill="#73a9d2" stroke="#73a9d2" stroke-width="1.51"/><path d="M601,1600L618,1711L755,1561Z" fill="#83b7da" stroke="#83b7da" stroke-width="1.51"/><path d="M764,1980L920,2205L935,1960Z" fill="#5b99ca" stroke="#5b99ca" stroke-width="1.51"/><path d="M566,1318L601,1600L755,1561Z" fill="#8abddd" stroke="#8abddd" stroke-width="1.51"/><path d="M1151,1133L1129,993L927,1164Z" fill="#7db5d8" stroke="#7db5d8" stroke-width="1.51"/><path d="M927,1164L796,1128L755,1289Z" fill="#8cbfdd" stroke="#8cbfdd" stroke-width="1.51"/><path d="M1327,1109L1129,993L1151,1133Z" fill="#74aed4" stroke="#74aed4" stroke-width="1.51"/><path d="M1320,929L1129,993L1327,1109Z" fill="#76abd3" stroke="#76abd3" stroke-width="1.51"/><path d="M1113,2407L1338,2317L1165,2097Z" fill="#317cb9" stroke="#317cb9" stroke-width="1.51"/><path d="M1397,2183L1599,2406L1545,2112Z" fill="#1c68ae" stroke="#1c68ae" stroke-width="1.51"/><path d="M1545,2112L1750,2188L1560,1942Z" fill="#1f68ad" stroke="#1f68ad" stroke-width="1.51"/><path d="M899,941L796,1128L927,1164Z" fill="#8ec1de" stroke="#8ec1de" stroke-width="1.51"/><path d="M755,1289L566,1318L755,1561Z" fill="#8cbfde" stroke="#8cbfde" stroke-width="1.51"/><path d="M764,1980L767,2181L920,2205Z" fill="#5f99ca" stroke="#5f99ca" stroke-width="1.51"/><path d="M618,1711L618,1971L729,1776Z" fill="#7aafd5" stroke="#7aafd5" stroke-width="1.51"/><path d="M393,1779L618,1971L618,1711Z" fill="#84b3d8" stroke="#84b3d8" stroke-width="1.51"/><path d="M1539,885L1320,929L1327,1109Z" fill="#72a2cf" stroke="#72a2cf" stroke-width="1.51"/><path d="M1018,2388L1113,2407L1165,2097Z" fill="#3c81bc" stroke="#3c81bc" stroke-width="1.51"/><path d="M615,2171L767,2181L764,1980Z" fill="#6b9ecc" stroke="#6b9ecc" stroke-width="1.51"/><path d="M1797,1907L1987,1691L1741,1743Z" fill="#2c65a0" stroke="#2c65a0" stroke-width="1.51"/><path d="M1809,1398L1804,1159L1562,1334Z" fill="#5080b6" stroke="#5080b6" stroke-width="1.51"/><path d="M1552,1149L1539,885L1327,1109Z" fill="#6b9bca" stroke="#6b9bca" stroke-width="1.51"/><path d="M1969,1372L1804,1159L1809,1398Z" fill="#4c75a8" stroke="#4c75a8" stroke-width="1.51"/><path d="M1599,2406L1750,2188L1545,2112Z" fill="#1760a8" stroke="#1760a8" stroke-width="1.51"/><path d="M1797,1907L1987,1955L1987,1691Z" fill="#265d96" stroke="#265d96" stroke-width="1.51"/><path d="M1987,1691L1994,1561L1706,1567Z" fill="#36679e" stroke="#36679e" stroke-width="1.51"/><path d="M1994,1561L1969,1372L1809,1398Z" fill="#3f6c9f" stroke="#3f6c9f" stroke-width="1.51"/><path d="M543,1142L566,1318L755,1289Z" fill="#9bc7e2" stroke="#9bc7e2" stroke-width="1.51"/><path d="M601,1600L393,1779L618,1711Z" fill="#8ab8dc" stroke="#8ab8dc" stroke-width="1.51"/><path d="M1018,2388L1165,2097L920,2205Z" fill="#4387c0" stroke="#4387c0" stroke-width="1.51"/><path d="M1338,2317L1599,2406L1397,2183Z" fill="#1d6ab0" stroke="#1d6ab0" stroke-width="1.51"/><path d="M778,2361L1018,2388L920,2205Z" fill="#508ac1" stroke="#508ac1" stroke-width="1.51"/><path d="M796,1128L543,1142L755,1289Z" fill="#99c7e0" stroke="#99c7e0" stroke-width="1.51"/><path d="M1129,993L899,941L927,1164Z" fill="#86bbdc" stroke="#86bbdc" stroke-width="1.51"/><path d="M974,793L899,941L1129,993Z" fill="#8dbdde" stroke="#8dbdde" stroke-width="1.51"/><path d="M1750,2188L1987,1955L1797,1907Z" fill="#1f5b9a" stroke="#1f5b9a" stroke-width="1.51"/><path d="M1987,1691L2176,1761L1994,1561Z" fill="#31649a" stroke="#31649a" stroke-width="1.51"/><path d="M1742,905L1539,885L1552,1149Z" fill="#6a92c4" stroke="#6a92c4" stroke-width="1.51"/><path d="M1320,929L1103,789L1129,993Z" fill="#80b2d8" stroke="#80b2d8" stroke-width="1.51"/><path d="M618,1971L615,2171L764,1980Z" fill="#72a4d0" stroke="#72a4d0" stroke-width="1.51"/><path d="M767,2181L778,2361L920,2205Z" fill="#5c92c6" stroke="#5c92c6" stroke-width="1.51"/><path d="M399,1973L615,2171L618,1971Z" fill="#7ea8d3" stroke="#7ea8d3" stroke-width="1.51"/><path d="M1376,2537L1599,2406L1338,2317Z" fill="#1a65ac" stroke="#1a65ac" stroke-width="1.51"/><path d="M1750,2188L2028,2187L1987,1955Z" fill="#195190" stroke="#195190" stroke-width="1.51"/><path d="M899,941L732,981L796,1128Z" fill="#99c6e0" stroke="#99c6e0" stroke-width="1.51"/><path d="M1804,1159L1742,905L1552,1149Z" fill="#6289bc" stroke="#6289bc" stroke-width="1.51"/><path d="M1969,1372L1961,1167L1804,1159Z" fill="#4f74a3" stroke="#4f74a3" stroke-width="1.51"/><path d="M2120,1166L1961,1167L1969,1372Z" fill="#4f73a2" stroke="#4f73a2" stroke-width="1.51"/><path d="M615,2171L778,2361L767,2181Z" fill="#6898c9" stroke="#6898c9" stroke-width="1.51"/><path d="M1001,2583L1203,2525L1113,2407Z" fill="#3776b4" stroke="#3776b4" stroke-width="1.51"/><path d="M1375,733L1103,789L1320,929Z" fill="#81afd6" stroke="#81afd6" stroke-width="1.51"/><path d="M899,941L782,703L732,981Z" fill="#a1cae3" stroke="#a1cae3" stroke-width="1.51"/><path d="M325,1481L393,1779L601,1600Z" fill="#95bfdf" stroke="#95bfdf" stroke-width="1.51"/><path d="M732,981L543,1142L796,1128Z" fill="#a1cbe2" stroke="#a1cbe2" stroke-width="1.51"/><path d="M325,1481L601,1600L566,1318Z" fill="#98c3e2" stroke="#98c3e2" stroke-width="1.51"/><path d="M1113,2407L1203,2525L1338,2317Z" fill="#2d74b4" stroke="#2d74b4" stroke-width="1.51"/><path d="M1001,2583L1113,2407L1018,2388Z" fill="#3e7cb8" stroke="#3e7cb8" stroke-width="1.51"/><path d="M1539,885L1375,733L1320,929Z" fill="#79a3d1" stroke="#79a3d1" stroke-width="1.51"/><path d="M1977,980L1742,905L1804,1159Z" fill="#6180af" stroke="#6180af" stroke-width="1.51"/><path d="M1103,789L974,793L1129,993Z" fill="#8cbadd" stroke="#8cbadd" stroke-width="1.51"/><path d="M1203,2525L1376,2537L1338,2317Z" fill="#256caf" stroke="#256caf" stroke-width="1.51"/><path d="M1566,685L1375,733L1539,885Z" fill="#7b9fce" stroke="#7b9fce" stroke-width="1.51"/><path d="M1019,534L782,703L974,793Z" fill="#a0c7e4" stroke="#a0c7e4" stroke-width="1.51"/><path d="M520,2395L725,2542L778,2361Z" fill="#6891c3" stroke="#6891c3" stroke-width="1.51"/><path d="M393,1779L399,1973L618,1971Z" fill="#88b1d8" stroke="#88b1d8" stroke-width="1.51"/><path d="M1994,1561L2163,1378L1969,1372Z" fill="#3f6c9f" stroke="#3f6c9f" stroke-width="1.51"/><path d="M1987,1955L2176,1761L1987,1691Z" fill="#295f97" stroke="#295f97" stroke-width="1.51"/><path d="M2225,1959L2176,1761L1987,1955Z" fill="#255b95" stroke="#255b95" stroke-width="1.51"/><path d="M1599,2406L1807,2405L1750,2188Z" fill="#10569e" stroke="#10569e" stroke-width="1.51"/><path d="M1775,2502L1807,2405L1599,2406Z" fill="#0c519a" stroke="#0c519a" stroke-width="1.51"/><path d="M2020,2329L2028,2187L1750,2188Z" fill="#134c8d" stroke="#134c8d" stroke-width="1.51"/><path d="M2195,1512L2163,1378L1994,1561Z" fill="#3c6a9e" stroke="#3c6a9e" stroke-width="1.51"/><path d="M1961,1167L1977,980L1804,1159Z" fill="#5978a5" stroke="#5978a5" stroke-width="1.51"/><path d="M1376,2537L1540,2547L1599,2406Z" fill="#145da6" stroke="#145da6" stroke-width="1.51"/><path d="M2176,1761L2195,1512L1994,1561Z" fill="#35669b" stroke="#35669b" stroke-width="1.51"/><path d="M294,1291L325,1481L566,1318Z" fill="#a5cae5" stroke="#a5cae5" stroke-width="1.51"/><path d="M393,1779L198,1912L399,1973Z" fill="#90b6db" stroke="#90b6db" stroke-width="1.51"/><path d="M732,981L592,953L543,1142Z" fill="#aacfe5" stroke="#aacfe5" stroke-width="1.51"/><path d="M334,1183L294,1291L566,1318Z" fill="#abcee6" stroke="#abcee6" stroke-width="1.51"/><path d="M608,761L592,953L732,981Z" fill="#afd1e6" stroke="#afd1e6" stroke-width="1.51"/><path d="M1203,2525L1356,2721L1376,2537Z" fill="#2365a8" stroke="#2365a8" stroke-width="1.51"/><path d="M1376,2537L1356,2721L1540,2547Z" fill="#195ea3" stroke="#195ea3" stroke-width="1.51"/><path d="M778,2361L1001,2583L1018,2388Z" fill="#4a83bc" stroke="#4a83bc" stroke-width="1.51"/><path d="M2120,1166L1977,980L1961,1167Z" fill="#5977a4" stroke="#5977a4" stroke-width="1.51"/><path d="M1742,905L1566,685L1539,885Z" fill="#7495c7" stroke="#7495c7" stroke-width="1.51"/><path d="M2318,1096L2120,1166L2163,1378Z" fill="#5174a3" stroke="#5174a3" stroke-width="1.51"/><path d="M2163,1378L2120,1166L1969,1372Z" fill="#4a70a1" stroke="#4a70a1" stroke-width="1.51"/><path d="M1540,2547L1775,2502L1599,2406Z" fill="#0d559f" stroke="#0d559f" stroke-width="1.51"/><path d="M1807,2405L2020,2329L1750,2188Z" fill="#124e91" stroke="#124e91" stroke-width="1.51"/><path d="M1824,762L1566,685L1742,905Z" fill="#738fc1" stroke="#738fc1" stroke-width="1.51"/><path d="M1019,534L974,793L1103,789Z" fill="#97c0e0" stroke="#97c0e0" stroke-width="1.51"/><path d="M2196,2161L1987,1955L2028,2187Z" fill="#1a5291" stroke="#1a5291" stroke-width="1.51"/><path d="M2196,2161L2225,1959L1987,1955Z" fill="#1e5592" stroke="#1e5592" stroke-width="1.51"/><path d="M2370,1741L2342,1486L2195,1512Z" fill="#37679c" stroke="#37679c" stroke-width="1.51"/><path d="M2015,2551L2020,2329L1807,2405Z" fill="#0d4486" stroke="#0d4486" stroke-width="1.51"/><path d="M334,1183L566,1318L543,1142Z" fill="#aacde6" stroke="#aacde6" stroke-width="1.51"/><path d="M184,2114L373,2202L399,1973Z" fill="#8aadd6" stroke="#8aadd6" stroke-width="1.51"/><path d="M399,922L334,1183L543,1142Z" fill="#b5d4e9" stroke="#b5d4e9" stroke-width="1.51"/><path d="M778,2361L725,2542L1001,2583Z" fill="#5686bd" stroke="#5686bd" stroke-width="1.51"/><path d="M520,2395L778,2361L615,2171Z" fill="#6e98c9" stroke="#6e98c9" stroke-width="1.51"/><path d="M399,1973L373,2202L615,2171Z" fill="#82a7d4" stroke="#82a7d4" stroke-width="1.51"/><path d="M196,1581L393,1779L325,1481Z" fill="#9cc3e2" stroke="#9cc3e2" stroke-width="1.51"/><path d="M2018,695L1824,762L1977,980Z" fill="#697ea9" stroke="#697ea9" stroke-width="1.51"/><path d="M1977,980L1824,762L1742,905Z" fill="#6882b0" stroke="#6882b0" stroke-width="1.51"/><path d="M373,2202L520,2395L615,2171Z" fill="#7b9ece" stroke="#7b9ece" stroke-width="1.51"/><path d="M592,953L399,922L543,1142Z" fill="#b4d4e8" stroke="#b4d4e8" stroke-width="1.51"/><path d="M974,793L782,703L899,941Z" fill="#9dc7e2" stroke="#9dc7e2" stroke-width="1.51"/><path d="M1154,578L1103,789L1375,733Z" fill="#8ab6da" stroke="#8ab6da" stroke-width="1.51"/><path d="M123,1295L196,1581L325,1481Z" fill="#a9cde7" stroke="#a9cde7" stroke-width="1.51"/><path d="M196,1581L195,1736L393,1779Z" fill="#9bc1e1" stroke="#9bc1e1" stroke-width="1.51"/><path d="M2226,2307L2196,2161L2028,2187Z" fill="#144d8d" stroke="#144d8d" stroke-width="1.51"/><path d="M1408,483L1154,578L1375,733Z" fill="#89b0d8" stroke="#89b0d8" stroke-width="1.51"/><path d="M1001,2583L1210,2723L1203,2525Z" fill="#336fac" stroke="#336fac" stroke-width="1.51"/><path d="M1540,2547L1591,2734L1775,2502Z" fill="#0c5099" stroke="#0c5099" stroke-width="1.51"/><path d="M946,2700L1210,2723L1001,2583Z" fill="#3a71ab" stroke="#3a71ab" stroke-width="1.51"/><path d="M1210,2723L1356,2721L1203,2525Z" fill="#2766a5" stroke="#2766a5" stroke-width="1.51"/><path d="M195,1736L198,1912L393,1779Z" fill="#96bcde" stroke="#96bcde" stroke-width="1.51"/><path d="M2195,1512L2342,1486L2163,1378Z" fill="#3e6b9f" stroke="#3e6b9f" stroke-width="1.51"/><path d="M2370,1741L2195,1512L2176,1761Z" fill="#31649a" stroke="#31649a" stroke-width="1.51"/><path d="M2370,1741L2176,1761L2225,1959Z" fill="#285e97" stroke="#285e97" stroke-width="1.51"/><path d="M782,703L608,761L732,981Z" fill="#aed1e6" stroke="#aed1e6" stroke-width="1.51"/><path d="M704,508L608,761L782,703Z" fill="#b6d5e9" stroke="#b6d5e9" stroke-width="1.51"/><path d="M725,2542L946,2700L1001,2583Z" fill="#4d7db4" stroke="#4d7db4" stroke-width="1.51"/><path d="M1566,685L1566,583L1375,733Z" fill="#80a1cf" stroke="#80a1cf" stroke-width="1.51"/><path d="M1797,525L1566,583L1566,685Z" fill="#7d98c9" stroke="#7d98c9" stroke-width="1.51"/><path d="M2409,1931L2370,1741L2225,1959Z" fill="#255c95" stroke="#255c95" stroke-width="1.51"/><path d="M294,1291L123,1295L325,1481Z" fill="#accfe8" stroke="#accfe8" stroke-width="1.51"/><path d="M334,1183L123,1295L294,1291Z" fill="#b3d3e9" stroke="#b3d3e9" stroke-width="1.51"/><path d="M608,761L399,922L592,953Z" fill="#b9d6ea" stroke="#b9d6ea" stroke-width="1.51"/><path d="M1154,578L1019,534L1103,789Z" fill="#95bedf" stroke="#95bedf" stroke-width="1.51"/><path d="M1129,297L1019,534L1154,578Z" fill="#9ac1e1" stroke="#9ac1e1" stroke-width="1.51"/><path d="M2186,2529L2226,2307L2020,2329Z" fill="#0e4687" stroke="#0e4687" stroke-width="1.51"/><path d="M1356,2721L1591,2734L1540,2547Z" fill="#14569b" stroke="#14569b" stroke-width="1.51"/><path d="M1746,2812L1591,2734L1596,2916Z" fill="#0b4589" stroke="#0b4589" stroke-width="1.51"/><path d="M725,2542L710,2805L946,2700Z" fill="#567eb1" stroke="#567eb1" stroke-width="1.51"/><path d="M520,2395L496,2492L725,2542Z" fill="#7092c4" stroke="#7092c4" stroke-width="1.51"/><path d="M292,2366L496,2492L520,2395Z" fill="#7c99c9" stroke="#7c99c9" stroke-width="1.51"/><path d="M292,2366L520,2395L373,2202Z" fill="#819fce" stroke="#819fce" stroke-width="1.51"/><path d="M2120,1166L2221,996L1977,980Z" fill="#5c79a5" stroke="#5c79a5" stroke-width="1.51"/><path d="M1824,762L1797,525L1566,685Z" fill="#7890c1" stroke="#7890c1" stroke-width="1.51"/><path d="M2318,1096L2221,996L2120,1166Z" fill="#5a78a5" stroke="#5a78a5" stroke-width="1.51"/><path d="M1566,583L1408,483L1375,733Z" fill="#83a6d3" stroke="#83a6d3" stroke-width="1.51"/><path d="M1509,377L1408,483L1566,583Z" fill="#86a5d2" stroke="#86a5d2" stroke-width="1.51"/><path d="M2196,2161L2342,2096L2225,1959Z" fill="#1b5391" stroke="#1b5391" stroke-width="1.51"/><path d="M2020,2329L2226,2307L2028,2187Z" fill="#124b8b" stroke="#124b8b" stroke-width="1.51"/><path d="M2015,2551L1807,2405L1775,2502Z" fill="#0a458a" stroke="#0a458a" stroke-width="1.51"/><path d="M198,1912L184,2114L399,1973Z" fill="#90b3da" stroke="#90b3da" stroke-width="1.51"/><path d="M-9,2090L184,2114L198,1912Z" fill="#96b5db" stroke="#96b5db" stroke-width="1.51"/><path d="M-9,2090L198,1912L-77,1905Z" fill="#9dbbde" stroke="#9dbbde" stroke-width="1.51"/><path d="M2226,2307L2342,2096L2196,2161Z" fill="#154e8e" stroke="#154e8e" stroke-width="1.51"/><path d="M1967,2786L2015,2551L1775,2502Z" fill="#093c7d" stroke="#093c7d" stroke-width="1.51"/><path d="M2342,2096L2409,1931L2225,1959Z" fill="#1f5793" stroke="#1f5793" stroke-width="1.51"/><path d="M2370,1741L2432,1279L2342,1486Z" fill="#3c699e" stroke="#3c699e" stroke-width="1.51"/><path d="M107,1099L123,1295L334,1183Z" fill="#bad7eb" stroke="#bad7eb" stroke-width="1.51"/><path d="M-77,1905L198,1912L195,1736Z" fill="#9dbfe0" stroke="#9dbfe0" stroke-width="1.51"/><path d="M2432,1279L2318,1096L2163,1378Z" fill="#4e72a2" stroke="#4e72a2" stroke-width="1.51"/><path d="M2432,1279L2163,1378L2342,1486Z" fill="#446ea0" stroke="#446ea0" stroke-width="1.51"/><path d="M184,2114L292,2366L373,2202Z" fill="#89a7d3" stroke="#89a7d3" stroke-width="1.51"/><path d="M2120,772L2018,695L1977,980Z" fill="#697ea9" stroke="#697ea9" stroke-width="1.51"/><path d="M2120,772L1977,980L2221,996Z" fill="#637ca7" stroke="#637ca7" stroke-width="1.51"/><path d="M2319,924L2120,772L2221,996Z" fill="#657ca8" stroke="#657ca8" stroke-width="1.51"/><path d="M2318,1096L2319,924L2221,996Z" fill="#5e7aa6" stroke="#5e7aa6" stroke-width="1.51"/><path d="M2409,1931L2432,1279L2370,1741Z" fill="#33649b" stroke="#33649b" stroke-width="1.51"/><path d="M2002,494L1797,525L2018,695Z" fill="#7383ad" stroke="#7383ad" stroke-width="1.51"/><path d="M2018,695L1797,525L1824,762Z" fill="#7284b0" stroke="#7284b0" stroke-width="1.51"/><path d="M1591,2734L1746,2812L1775,2502Z" fill="#09488e" stroke="#09488e" stroke-width="1.51"/><path d="M1596,2916L1591,2734L1356,2721Z" fill="#134f92" stroke="#134f92" stroke-width="1.51"/><path d="M1309,2948L1356,2721L1210,2723Z" fill="#235d9a" stroke="#235d9a" stroke-width="1.51"/><path d="M309,708L205,874L399,922Z" fill="#c9def0" stroke="#c9def0" stroke-width="1.51"/><path d="M205,874L107,1099L334,1183Z" fill="#c1dced" stroke="#c1dced" stroke-width="1.51"/><path d="M1019,534L704,508L782,703Z" fill="#accee7" stroke="#accee7" stroke-width="1.51"/><path d="M813,284L704,508L1019,534Z" fill="#b0d1e8" stroke="#b0d1e8" stroke-width="1.51"/><path d="M205,874L334,1183L399,922Z" fill="#c0daec" stroke="#c0daec" stroke-width="1.51"/><path d="M-9,2090L162,2397L184,2114Z" fill="#92add7" stroke="#92add7" stroke-width="1.51"/><path d="M2015,2551L2186,2529L2020,2329Z" fill="#0b4285" stroke="#0b4285" stroke-width="1.51"/><path d="M2226,2307L2406,2341L2342,2096Z" fill="#134c8c" stroke="#134c8c" stroke-width="1.51"/><path d="M2342,2096L2406,2341L2409,1931Z" fill="#185190" stroke="#185190" stroke-width="1.51"/><path d="M2182,2730L2186,2529L2015,2551Z" fill="#093c7d" stroke="#093c7d" stroke-width="1.51"/><path d="M2120,772L2107,591L2018,695Z" fill="#6f81ac" stroke="#6f81ac" stroke-width="1.51"/><path d="M2432,1279L2319,924L2318,1096Z" fill="#5977a4" stroke="#5977a4" stroke-width="1.51"/><path d="M535,2730L710,2805L725,2542Z" fill="#6484b4" stroke="#6484b4" stroke-width="1.51"/><path d="M946,2700L1221,2937L1210,2723Z" fill="#3268a0" stroke="#3268a0" stroke-width="1.51"/><path d="M535,2730L725,2542L496,2492Z" fill="#6d8cbd" stroke="#6d8cbd" stroke-width="1.51"/><path d="M162,2397L307,2517L292,2366Z" fill="#869ecc" stroke="#869ecc" stroke-width="1.51"/><path d="M292,2366L307,2517L496,2492Z" fill="#7f99c9" stroke="#7f99c9" stroke-width="1.51"/><path d="M915,3001L1221,2937L946,2700Z" fill="#39689d" stroke="#39689d" stroke-width="1.51"/><path d="M1408,483L1333,346L1154,578Z" fill="#8fb4da" stroke="#8fb4da" stroke-width="1.51"/><path d="M1797,525L1509,377L1566,583Z" fill="#829bcb" stroke="#829bcb" stroke-width="1.51"/><path d="M1509,377L1333,346L1408,483Z" fill="#8cacd7" stroke="#8cacd7" stroke-width="1.51"/><path d="M1221,2937L1309,2948L1210,2723Z" fill="#265c96" stroke="#265c96" stroke-width="1.51"/><path d="M303,2721L535,2730L496,2492Z" fill="#778dbc" stroke="#778dbc" stroke-width="1.51"/><path d="M309,708L399,922L608,761Z" fill="#c4daee" stroke="#c4daee" stroke-width="1.51"/><path d="M1746,2812L1967,2786L1775,2502Z" fill="#093e80" stroke="#093e80" stroke-width="1.51"/><path d="M1309,2948L1596,2916L1356,2721Z" fill="#185291" stroke="#185291" stroke-width="1.51"/><path d="M184,2114L162,2397L292,2366Z" fill="#8ba6d2" stroke="#8ba6d2" stroke-width="1.51"/><path d="M307,2517L303,2721L496,2492Z" fill="#7c93c3" stroke="#7c93c3" stroke-width="1.51"/><path d="M195,1736L-109,1770L-77,1905Z" fill="#a4c5e3" stroke="#a4c5e3" stroke-width="1.51"/><path d="M367,571L309,708L608,761Z" fill="#caddf0" stroke="#caddf0" stroke-width="1.51"/><path d="M704,508L602,478L608,761Z" fill="#bed8ec" stroke="#bed8ec" stroke-width="1.51"/><path d="M813,284L602,478L704,508Z" fill="#bdd9ec" stroke="#bdd9ec" stroke-width="1.51"/><path d="M2391,2493L2406,2341L2226,2307Z" fill="#0e4688" stroke="#0e4688" stroke-width="1.51"/><path d="M2409,1931L2417,2780L2432,1279Z" fill="#1f5793" stroke="#1f5793" stroke-width="1.51"/><path d="M1969,2942L1967,2786L1746,2812Z" fill="#08336f" stroke="#08336f" stroke-width="1.51"/><path d="M2186,2529L2391,2493L2226,2307Z" fill="#0c4486" stroke="#0c4486" stroke-width="1.51"/><path d="M-101,1530L196,1581L123,1295Z" fill="#afd0e9" stroke="#afd0e9" stroke-width="1.51"/><path d="M107,1099L-46,1300L123,1295Z" fill="#bfdaec" stroke="#bfdaec" stroke-width="1.51"/><path d="M-34,1075L-46,1300L107,1099Z" fill="#c6dfef" stroke="#c6dfef" stroke-width="1.51"/><path d="M2353,746L2107,591L2120,772Z" fill="#6f80ab" stroke="#6f80ab" stroke-width="1.51"/><path d="M1797,525L1820,285L1509,377Z" fill="#8297c6" stroke="#8297c6" stroke-width="1.51"/><path d="M1333,346L1129,297L1154,578Z" fill="#95bcde" stroke="#95bcde" stroke-width="1.51"/><path d="M1178,185L1129,297L1333,346Z" fill="#9abedf" stroke="#9abedf" stroke-width="1.51"/><path d="M-109,1770L195,1736L196,1581Z" fill="#a4c6e4" stroke="#a4c6e4" stroke-width="1.51"/><path d="M-46,1300L-101,1530L123,1295Z" fill="#b9d6ec" stroke="#b9d6ec" stroke-width="1.51"/><path d="M1596,2916L1718,2934L1746,2812Z" fill="#094083" stroke="#094083" stroke-width="1.51"/><path d="M1553,3170L1718,2934L1596,2916Z" fill="#0c4486" stroke="#0c4486" stroke-width="1.51"/><path d="M2107,591L2002,494L2018,695Z" fill="#7283ad" stroke="#7283ad" stroke-width="1.51"/><path d="M-101,1530L-109,1770L196,1581Z" fill="#accce7" stroke="#accce7" stroke-width="1.51"/><path d="M577,2988L819,2956L710,2805Z" fill="#5c79a5" stroke="#5c79a5" stroke-width="1.51"/><path d="M710,2805L819,2956L946,2700Z" fill="#5076a6" stroke="#5076a6" stroke-width="1.51"/><path d="M1208,3209L1417,3126L1309,2948Z" fill="#215894" stroke="#215894" stroke-width="1.51"/><path d="M602,478L367,571L608,761Z" fill="#c7dcef" stroke="#c7dcef" stroke-width="1.51"/><path d="M309,708L181,753L205,874Z" fill="#d0e2f2" stroke="#d0e2f2" stroke-width="1.51"/><path d="M-61,979L-34,1075L107,1099Z" fill="#cde3f0" stroke="#cde3f0" stroke-width="1.51"/><path d="M819,2956L915,3001L946,2700Z" fill="#476fa1" stroke="#476fa1" stroke-width="1.51"/><path d="M1309,2948L1417,3126L1596,2916Z" fill="#164f8f" stroke="#164f8f" stroke-width="1.51"/><path d="M214,487L181,753L309,708Z" fill="#d5e4f4" stroke="#d5e4f4" stroke-width="1.51"/><path d="M1129,297L935,282L1019,534Z" fill="#a2c8e4" stroke="#a2c8e4" stroke-width="1.51"/><path d="M602,478L303,303L367,571Z" fill="#d2e3f3" stroke="#d2e3f3" stroke-width="1.51"/><path d="M-93,2389L137,2494L162,2397Z" fill="#90a3cf" stroke="#90a3cf" stroke-width="1.51"/><path d="M162,2397L137,2494L307,2517Z" fill="#889ecb" stroke="#889ecb" stroke-width="1.51"/><path d="M535,2730L577,2988L710,2805Z" fill="#657eab" stroke="#657eab" stroke-width="1.51"/><path d="M202,2730L137,2494L-21,2712Z" fill="#8897c2" stroke="#8897c2" stroke-width="1.51"/><path d="M-61,979L107,1099L205,874Z" fill="#cce2f0" stroke="#cce2f0" stroke-width="1.51"/><path d="M-46,1300L-189,1310L-101,1530Z" fill="#b8d6ec" stroke="#b8d6ec" stroke-width="1.51"/><path d="M2182,2730L2391,2493L2186,2529Z" fill="#093d7f" stroke="#093d7f" stroke-width="1.51"/><path d="M2130,313L2020,358L2002,494Z" fill="#7987af" stroke="#7987af" stroke-width="1.51"/><path d="M2319,924L2353,746L2120,772Z" fill="#697ea9" stroke="#697ea9" stroke-width="1.51"/><path d="M2432,1279L2353,746L2319,924Z" fill="#607ba6" stroke="#607ba6" stroke-width="1.51"/><path d="M2141,2998L2182,2730L1967,2786Z" fill="#08326e" stroke="#08326e" stroke-width="1.51"/><path d="M1967,2786L2182,2730L2015,2551Z" fill="#093878" stroke="#093878" stroke-width="1.51"/><path d="M935,282L813,284L1019,534Z" fill="#abcee8" stroke="#abcee8" stroke-width="1.51"/><path d="M202,2730L303,2721L307,2517Z" fill="#7f92bf" stroke="#7f92bf" stroke-width="1.51"/><path d="M819,2956L898,3104L915,3001Z" fill="#4970a1" stroke="#4970a1" stroke-width="1.51"/><path d="M1350,143L1178,185L1333,346Z" fill="#98badd" stroke="#98badd" stroke-width="1.51"/><path d="M1129,297L972,109L935,282Z" fill="#a9cce7" stroke="#a9cce7" stroke-width="1.51"/><path d="M935,282L972,109L813,284Z" fill="#b1d2e9" stroke="#b1d2e9" stroke-width="1.51"/><path d="M1350,143L1333,346L1509,377Z" fill="#91b0d9" stroke="#91b0d9" stroke-width="1.51"/><path d="M2002,494L1820,285L1797,525Z" fill="#7a89b3" stroke="#7a89b3" stroke-width="1.51"/><path d="M2020,358L1820,285L2002,494Z" fill="#7a87af" stroke="#7a87af" stroke-width="1.51"/><path d="M181,753L-61,979L205,874Z" fill="#d1e4f2" stroke="#d1e4f2" stroke-width="1.51"/><path d="M-243,1115L-189,1310L-46,1300Z" fill="#c1dced" stroke="#c1dced" stroke-width="1.51"/><path d="M-84,692L-61,979L181,753Z" fill="#d9e8f6" stroke="#d9e8f6" stroke-width="1.51"/><path d="M1718,2934L1969,2942L1746,2812Z" fill="#093776" stroke="#093776" stroke-width="1.51"/><path d="M1930,3172L1969,2942L1718,2934Z" fill="#08336f" stroke="#08336f" stroke-width="1.51"/><path d="M-268,1531L-251,1777L-109,1770Z" fill="#a9c9e5" stroke="#a9c9e5" stroke-width="1.51"/><path d="M-243,1115L-46,1300L-34,1075Z" fill="#c6dfee" stroke="#c6dfee" stroke-width="1.51"/><path d="M1208,3209L1309,2948L1221,2937Z" fill="#265c96" stroke="#265c96" stroke-width="1.51"/><path d="M2130,313L2002,494L2107,591Z" fill="#7785ae" stroke="#7785ae" stroke-width="1.51"/><path d="M915,3001L1208,3209L1221,2937Z" fill="#31649a" stroke="#31649a" stroke-width="1.51"/><path d="M717,3122L898,3104L819,2956Z" fill="#5173a3" stroke="#5173a3" stroke-width="1.51"/><path d="M1595,79L1350,143L1509,377Z" fill="#91acd6" stroke="#91acd6" stroke-width="1.51"/><path d="M304,2890L577,2988L535,2730Z" fill="#6f81ac" stroke="#6f81ac" stroke-width="1.51"/><path d="M303,2721L304,2890L535,2730Z" fill="#7688b4" stroke="#7688b4" stroke-width="1.51"/><path d="M137,2494L202,2730L307,2517Z" fill="#8497c6" stroke="#8497c6" stroke-width="1.51"/><path d="M-93,2389L162,2397L-9,2090Z" fill="#96acd5" stroke="#96acd5" stroke-width="1.51"/><path d="M-77,1905L-248,1993L-9,2090Z" fill="#9fbbde" stroke="#9fbbde" stroke-width="1.51"/><path d="M-109,1770L-251,1777L-77,1905Z" fill="#a4c4e2" stroke="#a4c4e2" stroke-width="1.51"/><path d="M-268,1531L-109,1770L-101,1530Z" fill="#adcde7" stroke="#adcde7" stroke-width="1.51"/><path d="M-189,1310L-268,1531L-101,1530Z" fill="#b4d3ea" stroke="#b4d3ea" stroke-width="1.51"/><path d="M367,571L214,487L309,708Z" fill="#d4e4f4" stroke="#d4e4f4" stroke-width="1.51"/><path d="M813,284L554,278L602,478Z" fill="#c4ddee" stroke="#c4ddee" stroke-width="1.51"/><path d="M698,119L554,278L813,284Z" fill="#c5deee" stroke="#c5deee" stroke-width="1.51"/><path d="M972,109L1129,297L1178,185Z" fill="#a4c7e4" stroke="#a4c7e4" stroke-width="1.51"/><path d="M-204,2379L-93,2389L-299,2177Z" fill="#96abd5" stroke="#96abd5" stroke-width="1.51"/><path d="M-251,1777L-248,1993L-77,1905Z" fill="#a2c0e1" stroke="#a2c0e1" stroke-width="1.51"/><path d="M-299,2177L-248,1993L-251,1777Z" fill="#9fbcde" stroke="#9fbcde" stroke-width="1.51"/><path d="M1417,3126L1553,3170L1596,2916Z" fill="#124a8b" stroke="#124a8b" stroke-width="1.51"/><path d="M1362,3338L1553,3170L1417,3126Z" fill="#164f8f" stroke="#164f8f" stroke-width="1.51"/><path d="M303,303L214,487L367,571Z" fill="#d9e7f5" stroke="#d9e7f5" stroke-width="1.51"/><path d="M991,-16L972,109L1178,185Z" fill="#accde7" stroke="#accde7" stroke-width="1.51"/><path d="M898,3104L1208,3209L915,3001Z" fill="#3b699e" stroke="#3b699e" stroke-width="1.51"/><path d="M202,2730L304,2890L303,2721Z" fill="#7c8bb6" stroke="#7c8bb6" stroke-width="1.51"/><path d="M577,2988L717,3122L819,2956Z" fill="#5c79a5" stroke="#5c79a5" stroke-width="1.51"/><path d="M203,3002L304,2890L202,2730Z" fill="#7b88b0" stroke="#7b88b0" stroke-width="1.51"/><path d="M898,3104L1117,3322L1208,3209Z" fill="#35669b" stroke="#35669b" stroke-width="1.51"/><path d="M543,3170L717,3122L577,2988Z" fill="#637ca7" stroke="#637ca7" stroke-width="1.51"/><path d="M1820,285L1735,141L1509,377Z" fill="#879bc9" stroke="#879bc9" stroke-width="1.51"/><path d="M1182,-134L991,-16L1178,185Z" fill="#a9cae6" stroke="#a9cae6" stroke-width="1.51"/><path d="M1993,127L1735,141L1820,285Z" fill="#8490b9" stroke="#8490b9" stroke-width="1.51"/><path d="M2020,358L1993,127L1820,285Z" fill="#7e89b0" stroke="#7e89b0" stroke-width="1.51"/><path d="M2419,377L2130,313L2107,591Z" fill="#7886af" stroke="#7886af" stroke-width="1.51"/><path d="M-61,979L-243,1115L-34,1075Z" fill="#cde3f0" stroke="#cde3f0" stroke-width="1.51"/><path d="M-189,1310L-243,1115L-268,1531Z" fill="#bcd9ed" stroke="#bcd9ed" stroke-width="1.51"/><path d="M-264,912L-243,1115L-61,979Z" fill="#d0e4f1" stroke="#d0e4f1" stroke-width="1.51"/><path d="M1763,-17L1595,79L1735,141Z" fill="#8e9eca" stroke="#8e9eca" stroke-width="1.51"/><path d="M1735,141L1595,79L1509,377Z" fill="#8ca2cf" stroke="#8ca2cf" stroke-width="1.51"/><path d="M2353,746L2425,541L2107,591Z" fill="#7182ac" stroke="#7182ac" stroke-width="1.51"/><path d="M2432,1279L2425,541L2353,746Z" fill="#677da9" stroke="#677da9" stroke-width="1.51"/><path d="M1615,3309L1709,3192L1553,3170Z" fill="#0c4486" stroke="#0c4486" stroke-width="1.51"/><path d="M1553,3170L1709,3192L1718,2934Z" fill="#0a4284" stroke="#0a4284" stroke-width="1.51"/><path d="M1930,3172L2141,2998L1969,2942Z" fill="#08306b" stroke="#08306b" stroke-width="1.51"/><path d="M1969,2942L2141,2998L1967,2786Z" fill="#08306b" stroke="#08306b" stroke-width="1.51"/><path d="M2182,2730L2417,2780L2391,2493Z" fill="#093979" stroke="#093979" stroke-width="1.51"/><path d="M2357,2973L2417,2780L2182,2730Z" fill="#08326e" stroke="#08326e" stroke-width="1.51"/><path d="M2391,2493L2417,2780L2406,2341Z" fill="#093f82" stroke="#093f82" stroke-width="1.51"/><path d="M2406,2341L2417,2780L2409,1931Z" fill="#104789" stroke="#104789" stroke-width="1.51"/><path d="M972,109L698,119L813,284Z" fill="#bbd8eb" stroke="#bbd8eb" stroke-width="1.51"/><path d="M554,278L303,303L602,478Z" fill="#d2e3f3" stroke="#d2e3f3" stroke-width="1.51"/><path d="M806,-27L698,119L972,109Z" fill="#bfdbed" stroke="#bfdbed" stroke-width="1.51"/><path d="M-93,2389L-71,2591L137,2494Z" fill="#92a2ce" stroke="#92a2ce" stroke-width="1.51"/><path d="M-204,2379L-71,2591L-93,2389Z" fill="#93a5d0" stroke="#93a5d0" stroke-width="1.51"/><path d="M-299,2177L-93,2389L-9,2090Z" fill="#98b0d8" stroke="#98b0d8" stroke-width="1.51"/><path d="M-268,1531L-299,2177L-251,1777Z" fill="#a4c3e2" stroke="#a4c3e2" stroke-width="1.51"/><path d="M-248,1993L-299,2177L-9,2090Z" fill="#9cb7dc" stroke="#9cb7dc" stroke-width="1.51"/><path d="M-92,502L-84,692L214,487Z" fill="#e4eef9" stroke="#e4eef9" stroke-width="1.51"/><path d="M214,487L-84,692L181,753Z" fill="#dce9f7" stroke="#dce9f7" stroke-width="1.51"/><path d="M513,140L303,303L554,278Z" fill="#d7e6f5" stroke="#d7e6f5" stroke-width="1.51"/><path d="M-311,2742L-21,2712L-71,2591Z" fill="#8d99c2" stroke="#8d99c2" stroke-width="1.51"/><path d="M-71,2591L-21,2712L137,2494Z" fill="#8e9dc8" stroke="#8e9dc8" stroke-width="1.51"/><path d="M395,3168L543,3170L577,2988Z" fill="#6c7fab" stroke="#6c7fab" stroke-width="1.51"/><path d="M2141,2998L2357,2973L2182,2730Z" fill="#08306b" stroke="#08306b" stroke-width="1.51"/><path d="M1709,3192L1930,3172L1718,2934Z" fill="#093978" stroke="#093978" stroke-width="1.51"/><path d="M698,119L513,140L554,278Z" fill="#d0e3f2" stroke="#d0e3f2" stroke-width="1.51"/><path d="M920,3317L1117,3322L898,3104Z" fill="#3d6b9f" stroke="#3d6b9f" stroke-width="1.51"/><path d="M1208,3209L1362,3338L1417,3126Z" fill="#1f5793" stroke="#1f5793" stroke-width="1.51"/><path d="M1709,3192L1769,3306L1930,3172Z" fill="#093877" stroke="#093877" stroke-width="1.51"/><path d="M698,119L596,-54L513,140Z" fill="#d2e5f3" stroke="#d2e5f3" stroke-width="1.51"/><path d="M1312,-92L1178,185L1350,143Z" fill="#9ebddf" stroke="#9ebddf" stroke-width="1.51"/><path d="M395,3168L577,2988L304,2890Z" fill="#7182ac" stroke="#7182ac" stroke-width="1.51"/><path d="M717,3122L920,3317L898,3104Z" fill="#4d72a2" stroke="#4d72a2" stroke-width="1.51"/><path d="M1595,79L1312,-92L1350,143Z" fill="#99b4da" stroke="#99b4da" stroke-width="1.51"/><path d="M2130,313L1993,127L2020,358Z" fill="#7e89b0" stroke="#7e89b0" stroke-width="1.51"/><path d="M2144,130L1993,127L2130,313Z" fill="#808bb1" stroke="#808bb1" stroke-width="1.51"/><path d="M-84,692L-264,912L-61,979Z" fill="#d7e7f5" stroke="#d7e7f5" stroke-width="1.51"/><path d="M-243,1115L-264,912L-268,1531Z" fill="#c5deee" stroke="#c5deee" stroke-width="1.51"/><path d="M-268,1531L-301,508L-299,2177Z" fill="#b7d5eb" stroke="#b7d5eb" stroke-width="1.51"/><path d="M1117,3322L1362,3338L1208,3209Z" fill="#275d96" stroke="#275d96" stroke-width="1.51"/><path d="M1362,3338L1615,3309L1553,3170Z" fill="#124b8c" stroke="#124b8c" stroke-width="1.51"/><path d="M131,173L185,323L303,303Z" fill="#e4eef9" stroke="#e4eef9" stroke-width="1.51"/><path d="M303,303L185,323L214,487Z" fill="#deebf7" stroke="#deebf7" stroke-width="1.51"/><path d="M-84,692L-270,683L-264,912Z" fill="#dceaf6" stroke="#dceaf6" stroke-width="1.51"/><path d="M1117,3322L742,3388L1362,3338Z" fill="#35669b" stroke="#35669b" stroke-width="1.51"/><path d="M742,3388L920,3317L717,3122Z" fill="#5274a3" stroke="#5274a3" stroke-width="1.51"/><path d="M-35,2928L203,3002L202,2730Z" fill="#808bb1" stroke="#808bb1" stroke-width="1.51"/><path d="M2425,541L2419,377L2107,591Z" fill="#7584ae" stroke="#7584ae" stroke-width="1.51"/><path d="M2368,3161L2357,2973L2141,2998Z" fill="#08306b" stroke="#08306b" stroke-width="1.51"/><path d="M991,-16L806,-27L972,109Z" fill="#b7d5ec" stroke="#b7d5ec" stroke-width="1.51"/><path d="M513,140L328,116L303,303Z" fill="#ddeaf7" stroke="#ddeaf7" stroke-width="1.51"/><path d="M1993,127L1763,-17L1735,141Z" fill="#8893bc" stroke="#8893bc" stroke-width="1.51"/><path d="M991,-16L956,-270L806,-27Z" fill="#b9d6ec" stroke="#b9d6ec" stroke-width="1.51"/><path d="M1938,-48L1763,-17L1993,127Z" fill="#878fb5" stroke="#878fb5" stroke-width="1.51"/><path d="M1930,3172L2219,3215L2141,2998Z" fill="#08306b" stroke="#08306b" stroke-width="1.51"/><path d="M1615,3309L1769,3306L1709,3192Z" fill="#093f81" stroke="#093f81" stroke-width="1.51"/><path d="M1989,3415L1769,3306L1615,3309Z" fill="#093878" stroke="#093878" stroke-width="1.51"/><path d="M1616,-69L1312,-92L1595,79Z" fill="#97aed7" stroke="#97aed7" stroke-width="1.51"/><path d="M203,3002L395,3168L304,2890Z" fill="#7785ae" stroke="#7785ae" stroke-width="1.51"/><path d="M543,3170L742,3388L717,3122Z" fill="#5f7aa6" stroke="#5f7aa6" stroke-width="1.51"/><path d="M1763,-17L1616,-69L1595,79Z" fill="#92a3ce" stroke="#92a3ce" stroke-width="1.51"/><path d="M2330,80L2144,130L2130,313Z" fill="#818bb1" stroke="#818bb1" stroke-width="1.51"/><path d="M185,323L-92,502L214,487Z" fill="#e3eef8" stroke="#e3eef8" stroke-width="1.51"/><path d="M956,-270L1182,-134L1176,-331Z" fill="#abcbe6" stroke="#abcbe6" stroke-width="1.51"/><path d="M1312,-92L1182,-134L1178,185Z" fill="#a3c3e2" stroke="#a3c3e2" stroke-width="1.51"/><path d="M185,323L-83,316L-92,502Z" fill="#eaf2fb" stroke="#eaf2fb" stroke-width="1.51"/><path d="M293,-79L328,116L513,140Z" fill="#e2edf8" stroke="#e2edf8" stroke-width="1.51"/><path d="M-92,502L-270,683L-84,692Z" fill="#e2edf8" stroke="#e2edf8" stroke-width="1.51"/><path d="M-264,912L-301,508L-268,1531Z" fill="#d0e5f2" stroke="#d0e5f2" stroke-width="1.51"/><path d="M920,3317L742,3388L1117,3322Z" fill="#436ea0" stroke="#436ea0" stroke-width="1.51"/><path d="M1362,3338L1989,3415L1615,3309Z" fill="#0a4285" stroke="#0a4285" stroke-width="1.51"/><path d="M536,3411L742,3388L543,3170Z" fill="#647ca8" stroke="#647ca8" stroke-width="1.51"/><path d="M-21,2712L-35,2928L202,2730Z" fill="#8791b9" stroke="#8791b9" stroke-width="1.51"/><path d="M203,3002L201,3198L395,3168Z" fill="#7986af" stroke="#7986af" stroke-width="1.51"/><path d="M-204,2379L-305,2576L-71,2591Z" fill="#92a1cd" stroke="#92a1cd" stroke-width="1.51"/><path d="M-299,2177L-305,2576L-204,2379Z" fill="#95a8d3" stroke="#95a8d3" stroke-width="1.51"/><path d="M416,3377L536,3411L543,3170Z" fill="#6d7fab" stroke="#6d7fab" stroke-width="1.51"/><path d="M-263,2938L-35,2928L-21,2712Z" fill="#878fb5" stroke="#878fb5" stroke-width="1.51"/><path d="M806,-27L596,-54L698,119Z" fill="#cce2f0" stroke="#cce2f0" stroke-width="1.51"/><path d="M609,-236L596,-54L700,-278Z" fill="#d2e5f2" stroke="#d2e5f2" stroke-width="1.51"/><path d="M2144,130L1938,-48L1993,127Z" fill="#848db2" stroke="#848db2" stroke-width="1.51"/><path d="M1763,-17L1725,-250L1616,-69Z" fill="#919fcb" stroke="#919fcb" stroke-width="1.51"/><path d="M1357,-293L1182,-134L1312,-92Z" fill="#a1bfe0" stroke="#a1bfe0" stroke-width="1.51"/><path d="M2184,3346L2219,3215L1930,3172Z" fill="#08306b" stroke="#08306b" stroke-width="1.51"/><path d="M328,116L131,173L303,303Z" fill="#e3eef9" stroke="#e3eef9" stroke-width="1.51"/><path d="M-92,502L-301,508L-270,683Z" fill="#e4eef9" stroke="#e4eef9" stroke-width="1.51"/><path d="M-33,175L131,173L179,-54Z" fill="#eff6fd" stroke="#eff6fd" stroke-width="1.51"/><path d="M2357,2973L2368,3161L2417,2780Z" fill="#08306b" stroke="#08306b" stroke-width="1.51"/><path d="M2219,3215L2368,3161L2141,2998Z" fill="#08306b" stroke="#08306b" stroke-width="1.51"/><path d="M-22,3174L201,3198L203,3002Z" fill="#808ab1" stroke="#808ab1" stroke-width="1.51"/><path d="M131,173L-83,316L185,323Z" fill="#eaf2fb" stroke="#eaf2fb" stroke-width="1.51"/><path d="M2144,130L2189,-124L1938,-48Z" fill="#878eb3" stroke="#878eb3" stroke-width="1.51"/><path d="M2419,377L2330,80L2130,313Z" fill="#7e89b0" stroke="#7e89b0" stroke-width="1.51"/><path d="M742,3388L1989,3415L1362,3338Z" fill="#1d5492" stroke="#1d5492" stroke-width="1.51"/><path d="M416,3377L543,3170L395,3168Z" fill="#7081ac" stroke="#7081ac" stroke-width="1.51"/><path d="M2219,3215L2321,3395L2368,3161Z" fill="#08306b" stroke="#08306b" stroke-width="1.51"/><path d="M1769,3306L1989,3415L1930,3172Z" fill="#08316d" stroke="#08316d" stroke-width="1.51"/><path d="M536,3411L1989,3415L742,3388Z" fill="#34659b" stroke="#34659b" stroke-width="1.51"/><path d="M-305,2576L-311,2742L-71,2591Z" fill="#8e9bc5" stroke="#8e9bc5" stroke-width="1.51"/><path d="M-35,2928L-22,3174L203,3002Z" fill="#848db2" stroke="#848db2" stroke-width="1.51"/><path d="M-299,2177L-311,2742L-305,2576Z" fill="#92a2ce" stroke="#92a2ce" stroke-width="1.51"/><path d="M-301,508L-311,2742L-299,2177Z" fill="#a4c5e3" stroke="#a4c5e3" stroke-width="1.51"/><path d="M201,3198L416,3377L395,3168Z" fill="#7584ae" stroke="#7584ae" stroke-width="1.51"/><path d="M-270,683L-301,508L-264,912Z" fill="#dfebf7" stroke="#dfebf7" stroke-width="1.51"/><path d="M-191,315L-301,508L-92,502Z" fill="#e8f1fa" stroke="#e8f1fa" stroke-width="1.51"/><path d="M1989,3415L2184,3346L1930,3172Z" fill="#08306b" stroke="#08306b" stroke-width="1.51"/><path d="M179,-54L131,173L328,116Z" fill="#eaf2fb" stroke="#eaf2fb" stroke-width="1.51"/><path d="M1182,-134L956,-270L991,-16Z" fill="#afcfe8" stroke="#afcfe8" stroke-width="1.51"/><path d="M1357,-293L1312,-92L1504,-303Z" fill="#9cb7dc" stroke="#9cb7dc" stroke-width="1.51"/><path d="M1504,-303L1312,-92L1616,-69Z" fill="#98b0d8" stroke="#98b0d8" stroke-width="1.51"/><path d="M1725,-250L1763,-17L1938,-48Z" fill="#8c97bf" stroke="#8c97bf" stroke-width="1.51"/><path d="M1951,-258L1725,-250L1938,-48Z" fill="#8992b9" stroke="#8992b9" stroke-width="1.51"/><path d="M-83,316L-191,315L-92,502Z" fill="#eaf2fb" stroke="#eaf2fb" stroke-width="1.51"/><path d="M131,173L-33,175L-83,316Z" fill="#eff6fd" stroke="#eff6fd" stroke-width="1.51"/><path d="M293,-79L513,140L596,-54Z" fill="#dfebf7" stroke="#dfebf7" stroke-width="1.51"/><path d="M1357,-293L1176,-331L1182,-134Z" fill="#a3c2e1" stroke="#a3c2e1" stroke-width="1.51"/><path d="M1725,-250L1504,-303L1616,-69Z" fill="#94a6d1" stroke="#94a6d1" stroke-width="1.51"/><path d="M-33,175L-191,315L-83,316Z" fill="#eef5fc" stroke="#eef5fc" stroke-width="1.51"/><path d="M387,-261L293,-79L596,-54Z" fill="#e1edf8" stroke="#e1edf8" stroke-width="1.51"/><path d="M1504,-303L1176,-331L1357,-293Z" fill="#9ebade" stroke="#9ebade" stroke-width="1.51"/><path d="M700,-278L596,-54L806,-27Z" fill="#cde3f0" stroke="#cde3f0" stroke-width="1.51"/><path d="M700,-278L806,-27L956,-270Z" fill="#c2dced" stroke="#c2dced" stroke-width="1.51"/><path d="M201,3198L105,3347L416,3377Z" fill="#7a87af" stroke="#7a87af" stroke-width="1.51"/><path d="M-263,2938L-22,3174L-35,2928Z" fill="#878eb3" stroke="#878eb3" stroke-width="1.51"/><path d="M-311,2742L-263,2938L-21,2712Z" fill="#8992b9" stroke="#8992b9" stroke-width="1.51"/><path d="M2330,80L2189,-124L2144,130Z" fill="#868eb3" stroke="#868eb3" stroke-width="1.51"/><path d="M1176,-331L700,-278L956,-270Z" fill="#b6d5eb" stroke="#b6d5eb" stroke-width="1.51"/><path d="M293,-79L179,-54L328,116Z" fill="#e9f2fb" stroke="#e9f2fb" stroke-width="1.51"/><path d="M-33,175L-239,130L-191,315Z" fill="#f0f6fc" stroke="#f0f6fc" stroke-width="1.51"/><path d="M126,-257L179,-54L293,-79Z" fill="#edf4fc" stroke="#edf4fc" stroke-width="1.51"/><path d="M387,-261L596,-54L609,-236Z" fill="#dbe9f6" stroke="#dbe9f6" stroke-width="1.51"/><path d="M2189,-124L1951,-258L1938,-48Z" fill="#878eb3" stroke="#878eb3" stroke-width="1.51"/><path d="M1725,-250L1951,-258L1504,-303Z" fill="#8f9dc8" stroke="#8f9dc8" stroke-width="1.51"/><path d="M2189,-124L2223,-233L1951,-258Z" fill="#878eb3" stroke="#878eb3" stroke-width="1.51"/><path d="M2330,80L2324,-80L2189,-124Z" fill="#878eb3" stroke="#878eb3" stroke-width="1.51"/><path d="M2367,-292L2324,-80L2330,80Z" fill="#878eb3" stroke="#878eb3" stroke-width="1.51"/><path d="M1989,3415L2321,3395L2184,3346Z" fill="#08306b" stroke="#08306b" stroke-width="1.51"/><path d="M2184,3346L2321,3395L2219,3215Z" fill="#08306b" stroke="#08306b" stroke-width="1.51"/><path d="M-22,3174L105,3347L201,3198Z" fill="#828bb2" stroke="#828bb2" stroke-width="1.51"/><path d="M416,3377L10,3369L536,3411Z" fill="#7685ae" stroke="#7685ae" stroke-width="1.51"/><path d="M10,3369L105,3347L-22,3174Z" fill="#858db3" stroke="#858db3" stroke-width="1.51"/><path d="M5,-299L387,-261L700,-278Z" fill="#e5eff9" stroke="#e5eff9" stroke-width="1.51"/><path d="M700,-278L387,-261L609,-236Z" fill="#d8e8f4" stroke="#d8e8f4" stroke-width="1.51"/><path d="M2324,-80L2223,-233L2189,-124Z" fill="#878eb3" stroke="#878eb3" stroke-width="1.51"/><path d="M1951,-258L2367,-292L1504,-303Z" fill="#878eb3" stroke="#878eb3" stroke-width="1.51"/><path d="M105,3347L10,3369L416,3377Z" fill="#7e89b0" stroke="#7e89b0" stroke-width="1.51"/><path d="M-274,3345L10,3369L-22,3174Z" fill="#878eb3" stroke="#878eb3" stroke-width="1.51"/><path d="M-17,-127L-33,175L179,-54Z" fill="#f5f9ff" stroke="#f5f9ff" stroke-width="1.51"/><path d="M-220,-89L-239,130L-33,175Z" fill="#f5f9fe" stroke="#f5f9fe" stroke-width="1.51"/><path d="M-191,315L-239,130L-301,508Z" fill="#ecf4fc" stroke="#ecf4fc" stroke-width="1.51"/><path d="M126,-257L-17,-127L179,-54Z" fill="#f2f8fe" stroke="#f2f8fe" stroke-width="1.51"/><path d="M-311,2742L-270,3209L-263,2938Z" fill="#878eb3" stroke="#878eb3" stroke-width="1.51"/><path d="M-263,2938L-270,3209L-22,3174Z" fill="#878eb3" stroke="#878eb3" stroke-width="1.51"/><path d="M387,-261L126,-257L293,-79Z" fill="#e9f2fb" stroke="#e9f2fb" stroke-width="1.51"/><path d="M5,-299L126,-257L387,-261Z" fill="#eef5fc" stroke="#eef5fc" stroke-width="1.51"/><path d="M2324,-80L2367,-292L2223,-233Z" fill="#878eb3" stroke="#878eb3" stroke-width="1.51"/><path d="M2223,-233L2367,-292L1951,-258Z" fill="#878eb3" stroke="#878eb3" stroke-width="1.51"/><path d="M1504,-303L2367,-292L1176,-331Z" fill="#92a1cd" stroke="#92a1cd" stroke-width="1.51"/><path d="M2419,377L2367,-292L2330,80Z" fill="#858db3" stroke="#858db3" stroke-width="1.51"/><path d="M-286,-269L-220,-89L-17,-127Z" fill="#f7fbff" stroke="#f7fbff" stroke-width="1.51"/><path d="M-17,-127L-220,-89L-33,175Z" fill="#f7fbff" stroke="#f7fbff" stroke-width="1.51"/><path d="M-239,130L-286,-269L-301,508Z" fill="#f3f8fd" stroke="#f3f8fd" stroke-width="1.51"/><path d="M-270,3209L-274,3345L-22,3174Z" fill="#878eb3" stroke="#878eb3" stroke-width="1.51"/><path d="M-311,2742L-274,3345L-270,3209Z" fill="#878eb3" stroke="#878eb3" stroke-width="1.51"/><path d="M126,-257L5,-299L-17,-127Z" fill="#f5f9ff" stroke="#f5f9ff" stroke-width="1.51"/><path d="M1176,-331L5,-299L700,-278Z" fill="#d3e6f2" stroke="#d3e6f2" stroke-width="1.51"/><path d="M5,-299L-286,-269L-17,-127Z" fill="#f7fbff" stroke="#f7fbff" stroke-width="1.51"/><path d="M-220,-89L-286,-269L-239,130Z" fill="#f7fbff" stroke="#f7fbff" stroke-width="1.51"/></svg>